<svg width="323" height="208" viewBox="0 0 323 208" fill="none" xmlns="http://www.w3.org/2000/svg">
<g opacity="0.5">
<path d="M30.2098 93.1252C30.2098 93.9252 29.5618 94.5732 28.7605 94.5732C27.9605 94.5732 27.3125 93.9252 27.3125 93.1252C27.3125 92.3252 27.9605 91.6772 28.7605 91.6772C29.5618 91.6772 30.2098 92.3252 30.2098 93.1252Z" fill="#F2F2F2"/>
<path d="M3.59655 93.1252C3.59655 93.9252 2.94855 94.5732 2.14855 94.5732C1.34722 94.5732 0.699219 93.9252 0.699219 93.1252C0.699219 92.3252 1.34722 91.6772 2.14855 91.6772C2.94855 91.6772 3.59655 92.3252 3.59655 93.1252Z" fill="#F2F2F2"/>
<path d="M30.2098 70.4495C30.2098 71.2508 29.5618 71.8988 28.7605 71.8988C27.9605 71.8988 27.3125 71.2508 27.3125 70.4495C27.3125 69.6495 27.9605 69.0015 28.7605 69.0015C29.5618 69.0015 30.2098 69.6495 30.2098 70.4495Z" fill="#F2F2F2"/>
<path d="M3.59655 70.4495C3.59655 71.2508 2.94855 71.8988 2.14855 71.8988C1.34722 71.8988 0.699219 71.2508 0.699219 70.4495C0.699219 69.6495 1.34722 69.0015 2.14855 69.0015C2.94855 69.0015 3.59655 69.6495 3.59655 70.4495Z" fill="#F2F2F2"/>
<path d="M30.2098 47.775C30.2098 48.575 29.5618 49.223 28.7605 49.223C27.9605 49.223 27.3125 48.575 27.3125 47.775C27.3125 46.9737 27.9605 46.3257 28.7605 46.3257C29.5618 46.3257 30.2098 46.9737 30.2098 47.775Z" fill="#F2F2F2"/>
<path d="M3.59655 47.775C3.59655 48.575 2.94855 49.223 2.14855 49.223C1.34722 49.223 0.699219 48.575 0.699219 47.775C0.699219 46.9737 1.34722 46.3257 2.14855 46.3257C2.94855 46.3257 3.59655 46.9737 3.59655 47.775Z" fill="#F2F2F2"/>
<path d="M30.2098 25.0994C30.2098 25.8994 29.5618 26.5474 28.7605 26.5474C27.9605 26.5474 27.3125 25.8994 27.3125 25.0994C27.3125 24.2994 27.9605 23.6514 28.7605 23.6514C29.5618 23.6514 30.2098 24.2994 30.2098 25.0994Z" fill="#F2F2F2"/>
<path d="M3.59655 25.0994C3.59655 25.8994 2.94855 26.5474 2.14855 26.5474C1.34722 26.5474 0.699219 25.8994 0.699219 25.0994C0.699219 24.2994 1.34722 23.6514 2.14855 23.6514C2.94855 23.6514 3.59655 24.2994 3.59655 25.0994Z" fill="#F2F2F2"/>
<path d="M3.59655 2.42492C3.59655 3.22492 2.94855 3.87292 2.14855 3.87292C1.34722 3.87292 0.699219 3.22492 0.699219 2.42492C0.699219 1.62359 1.34722 0.975586 2.14855 0.975586C2.94855 0.975586 3.59655 1.62359 3.59655 2.42492Z" fill="#F2F2F2"/>
<path d="M322.95 206.502C322.95 207.302 322.302 207.95 321.502 207.95C320.702 207.95 320.054 207.302 320.054 206.502C320.054 205.702 320.702 205.054 321.502 205.054C322.302 205.054 322.95 205.702 322.95 206.502Z" fill="#F2F2F2"/>
<path d="M296.337 206.502C296.337 207.302 295.689 207.95 294.887 207.95C294.087 207.95 293.439 207.302 293.439 206.502C293.439 205.702 294.087 205.054 294.887 205.054C295.689 205.054 296.337 205.702 296.337 206.502Z" fill="#F2F2F2"/>
<path d="M269.724 206.502C269.724 207.302 269.076 207.95 268.276 207.95C267.476 207.95 266.828 207.302 266.828 206.502C266.828 205.702 267.476 205.054 268.276 205.054C269.076 205.054 269.724 205.702 269.724 206.502Z" fill="#F2F2F2"/>
<path d="M243.112 206.502C243.112 207.302 242.464 207.95 241.663 207.95C240.863 207.95 240.215 207.302 240.215 206.502C240.215 205.702 240.863 205.054 241.663 205.054C242.464 205.054 243.112 205.702 243.112 206.502Z" fill="#F2F2F2"/>
<path d="M216.499 206.502C216.499 207.302 215.851 207.95 215.051 207.95C214.25 207.95 213.602 207.302 213.602 206.502C213.602 205.702 214.25 205.054 215.051 205.054C215.851 205.054 216.499 205.702 216.499 206.502Z" fill="#F2F2F2"/>
<path d="M189.885 206.502C189.885 207.302 189.237 207.95 188.437 207.95C187.637 207.95 186.989 207.302 186.989 206.502C186.989 205.702 187.637 205.054 188.437 205.054C189.237 205.054 189.885 205.702 189.885 206.502Z" fill="#F2F2F2"/>
<path d="M163.273 206.502C163.273 207.302 162.625 207.95 161.824 207.95C161.024 207.95 160.376 207.302 160.376 206.502C160.376 205.702 161.024 205.054 161.824 205.054C162.625 205.054 163.273 205.702 163.273 206.502Z" fill="#F2F2F2"/>
<path d="M136.66 206.502C136.66 207.302 136.012 207.95 135.212 207.95C134.411 207.95 133.763 207.302 133.763 206.502C133.763 205.702 134.411 205.054 135.212 205.054C136.012 205.054 136.66 205.702 136.66 206.502Z" fill="#F2F2F2"/>
<path d="M110.047 206.502C110.047 207.302 109.399 207.95 108.599 207.95C107.799 207.95 107.151 207.302 107.151 206.502C107.151 205.702 107.799 205.054 108.599 205.054C109.399 205.054 110.047 205.702 110.047 206.502Z" fill="#F2F2F2"/>
<path d="M83.4344 206.502C83.4344 207.302 82.7864 207.95 81.9864 207.95C81.1851 207.95 80.5371 207.302 80.5371 206.502C80.5371 205.702 81.1851 205.054 81.9864 205.054C82.7864 205.054 83.4344 205.702 83.4344 206.502Z" fill="#F2F2F2"/>
<path d="M56.8218 206.502C56.8218 207.302 56.1738 207.95 55.3738 207.95C54.5738 207.95 53.9258 207.302 53.9258 206.502C53.9258 205.702 54.5738 205.054 55.3738 205.054C56.1738 205.054 56.8218 205.702 56.8218 206.502Z" fill="#F2F2F2"/>
<path d="M30.2098 206.502C30.2098 207.302 29.5618 207.95 28.7605 207.95C27.9605 207.95 27.3125 207.302 27.3125 206.502C27.3125 205.702 27.9605 205.054 28.7605 205.054C29.5618 205.054 30.2098 205.702 30.2098 206.502Z" fill="#F2F2F2"/>
<path d="M3.59655 206.502C3.59655 207.302 2.94855 207.95 2.14855 207.95C1.34722 207.95 0.699219 207.302 0.699219 206.502C0.699219 205.702 1.34722 205.054 2.14855 205.054C2.94855 205.054 3.59655 205.702 3.59655 206.502Z" fill="#F2F2F2"/>
<path d="M296.337 183.826C296.337 184.627 295.689 185.275 294.887 185.275C294.087 185.275 293.439 184.627 293.439 183.826C293.439 183.026 294.087 182.378 294.887 182.378C295.689 182.378 296.337 183.026 296.337 183.826Z" fill="#F2F2F2"/>
<path d="M269.724 183.826C269.724 184.627 269.076 185.275 268.276 185.275C267.476 185.275 266.828 184.627 266.828 183.826C266.828 183.026 267.476 182.378 268.276 182.378C269.076 182.378 269.724 183.026 269.724 183.826Z" fill="#F2F2F2"/>
<path d="M243.112 183.826C243.112 184.627 242.464 185.275 241.663 185.275C240.863 185.275 240.215 184.627 240.215 183.826C240.215 183.026 240.863 182.378 241.663 182.378C242.464 182.378 243.112 183.026 243.112 183.826Z" fill="#F2F2F2"/>
<path d="M216.499 183.826C216.499 184.627 215.851 185.275 215.051 185.275C214.25 185.275 213.602 184.627 213.602 183.826C213.602 183.026 214.25 182.378 215.051 182.378C215.851 182.378 216.499 183.026 216.499 183.826Z" fill="#F2F2F2"/>
<path d="M189.885 183.826C189.885 184.627 189.237 185.275 188.437 185.275C187.637 185.275 186.989 184.627 186.989 183.826C186.989 183.026 187.637 182.378 188.437 182.378C189.237 182.378 189.885 183.026 189.885 183.826Z" fill="#F2F2F2"/>
<path d="M163.273 183.826C163.273 184.627 162.625 185.275 161.824 185.275C161.024 185.275 160.376 184.627 160.376 183.826C160.376 183.026 161.024 182.378 161.824 182.378C162.625 182.378 163.273 183.026 163.273 183.826Z" fill="#F2F2F2"/>
<path d="M136.66 183.826C136.66 184.627 136.012 185.275 135.212 185.275C134.411 185.275 133.763 184.627 133.763 183.826C133.763 183.026 134.411 182.378 135.212 182.378C136.012 182.378 136.66 183.026 136.66 183.826Z" fill="#F2F2F2"/>
<path d="M110.047 183.826C110.047 184.627 109.399 185.275 108.599 185.275C107.799 185.275 107.151 184.627 107.151 183.826C107.151 183.026 107.799 182.378 108.599 182.378C109.399 182.378 110.047 183.026 110.047 183.826Z" fill="#F2F2F2"/>
<path d="M83.4344 183.826C83.4344 184.627 82.7864 185.275 81.9864 185.275C81.1851 185.275 80.5371 184.627 80.5371 183.826C80.5371 183.026 81.1851 182.378 81.9864 182.378C82.7864 182.378 83.4344 183.026 83.4344 183.826Z" fill="#F2F2F2"/>
<path d="M56.8218 183.826C56.8218 184.627 56.1738 185.275 55.3738 185.275C54.5738 185.275 53.9258 184.627 53.9258 183.826C53.9258 183.026 54.5738 182.378 55.3738 182.378C56.1738 182.378 56.8218 183.026 56.8218 183.826Z" fill="#F2F2F2"/>
<path d="M30.2098 183.826C30.2098 184.627 29.5618 185.275 28.7605 185.275C27.9605 185.275 27.3125 184.627 27.3125 183.826C27.3125 183.026 27.9605 182.378 28.7605 182.378C29.5618 182.378 30.2098 183.026 30.2098 183.826Z" fill="#F2F2F2"/>
<path d="M3.59655 183.826C3.59655 184.627 2.94855 185.275 2.14855 185.275C1.34722 185.275 0.699219 184.627 0.699219 183.826C0.699219 183.026 1.34722 182.378 2.14855 182.378C2.94855 182.378 3.59655 183.026 3.59655 183.826Z" fill="#F2F2F2"/>
<path d="M269.724 161.151C269.724 161.951 269.076 162.599 268.276 162.599C267.476 162.599 266.828 161.951 266.828 161.151C266.828 160.351 267.476 159.703 268.276 159.703C269.076 159.703 269.724 160.351 269.724 161.151Z" fill="#F2F2F2"/>
<path d="M243.112 161.151C243.112 161.951 242.464 162.599 241.663 162.599C240.863 162.599 240.215 161.951 240.215 161.151C240.215 160.351 240.863 159.703 241.663 159.703C242.464 159.703 243.112 160.351 243.112 161.151Z" fill="#F2F2F2"/>
<path d="M216.499 161.151C216.499 161.951 215.851 162.599 215.051 162.599C214.25 162.599 213.602 161.951 213.602 161.151C213.602 160.351 214.25 159.703 215.051 159.703C215.851 159.703 216.499 160.351 216.499 161.151Z" fill="#F2F2F2"/>
<path d="M189.885 161.151C189.885 161.951 189.237 162.599 188.437 162.599C187.637 162.599 186.989 161.951 186.989 161.151C186.989 160.351 187.637 159.703 188.437 159.703C189.237 159.703 189.885 160.351 189.885 161.151Z" fill="#F2F2F2"/>
<path d="M163.273 161.151C163.273 161.951 162.625 162.599 161.824 162.599C161.024 162.599 160.376 161.951 160.376 161.151C160.376 160.351 161.024 159.703 161.824 159.703C162.625 159.703 163.273 160.351 163.273 161.151Z" fill="#F2F2F2"/>
<path d="M136.66 161.151C136.66 161.951 136.012 162.599 135.212 162.599C134.411 162.599 133.763 161.951 133.763 161.151C133.763 160.351 134.411 159.703 135.212 159.703C136.012 159.703 136.66 160.351 136.66 161.151Z" fill="#F2F2F2"/>
<path d="M110.047 161.151C110.047 161.951 109.399 162.599 108.599 162.599C107.799 162.599 107.151 161.951 107.151 161.151C107.151 160.351 107.799 159.703 108.599 159.703C109.399 159.703 110.047 160.351 110.047 161.151Z" fill="#F2F2F2"/>
<path d="M83.4344 161.151C83.4344 161.951 82.7864 162.599 81.9864 162.599C81.1851 162.599 80.5371 161.951 80.5371 161.151C80.5371 160.351 81.1851 159.703 81.9864 159.703C82.7864 159.703 83.4344 160.351 83.4344 161.151Z" fill="#F2F2F2"/>
<path d="M56.8218 161.151C56.8218 161.951 56.1738 162.599 55.3738 162.599C54.5738 162.599 53.9258 161.951 53.9258 161.151C53.9258 160.351 54.5738 159.703 55.3738 159.703C56.1738 159.703 56.8218 160.351 56.8218 161.151Z" fill="#F2F2F2"/>
<path d="M30.2098 161.151C30.2098 161.951 29.5618 162.599 28.7605 162.599C27.9605 162.599 27.3125 161.951 27.3125 161.151C27.3125 160.351 27.9605 159.703 28.7605 159.703C29.5618 159.703 30.2098 160.351 30.2098 161.151Z" fill="#F2F2F2"/>
<path d="M3.59655 161.151C3.59655 161.951 2.94855 162.599 2.14855 162.599C1.34722 162.599 0.699219 161.951 0.699219 161.151C0.699219 160.351 1.34722 159.703 2.14855 159.703C2.94855 159.703 3.59655 160.351 3.59655 161.151Z" fill="#F2F2F2"/>
<path d="M30.2098 138.476C30.2098 139.277 29.5618 139.925 28.7605 139.925C27.9605 139.925 27.3125 139.277 27.3125 138.476C27.3125 137.676 27.9605 137.028 28.7605 137.028C29.5618 137.028 30.2098 137.676 30.2098 138.476Z" fill="#F2F2F2"/>
<path d="M3.59655 138.476C3.59655 139.277 2.94855 139.925 2.14855 139.925C1.34722 139.925 0.699219 139.277 0.699219 138.476C0.699219 137.676 1.34722 137.028 2.14855 137.028C2.94855 137.028 3.59655 137.676 3.59655 138.476Z" fill="#F2F2F2"/>
<path d="M30.2098 115.801C30.2098 116.601 29.5618 117.249 28.7605 117.249C27.9605 117.249 27.3125 116.601 27.3125 115.801C27.3125 115 27.9605 114.352 28.7605 114.352C29.5618 114.352 30.2098 115 30.2098 115.801Z" fill="#F2F2F2"/>
<path d="M3.59655 115.801C3.59655 116.601 2.94855 117.249 2.14855 117.249C1.34722 117.249 0.699219 116.601 0.699219 115.801C0.699219 115 1.34722 114.352 2.14855 114.352C2.94855 114.352 3.59655 115 3.59655 115.801Z" fill="#F2F2F2"/>
</g>
</svg>
