<svg width="94" height="182" viewBox="0 0 94 182" fill="none" xmlns="http://www.w3.org/2000/svg">
<path d="M73.4611 0.000243516L46.7184 26.7429L19.9757 0.000238841L12.8371 0.000238217L46.7184 33.8816L80.6011 0.000244141L73.4611 0.000243516Z" fill="#6ECFFF" fill-opacity="0.1"/>
<path d="M93.436 29.9719L93.436 22.8333L46.7187 69.5506L2.7733e-05 22.8332L2.71089e-05 29.9719L46.7187 76.6892L93.436 29.9719Z" fill="#6ECFFF" fill-opacity="0.1"/>
<path d="M93.436 8.5686L93.436 1.42993L46.7187 48.1473L2.7733e-05 1.42992L2.71089e-05 8.56859L46.7187 55.2873L93.436 8.5686Z" fill="#6ECFFF" fill-opacity="0.1"/>
<path d="M52.0573 0.000243516L46.7186 5.33891L41.3799 0.000242583L34.2399 0.000241959L46.7186 12.4789L59.1973 0.000244141L52.0573 0.000243516Z" fill="#6ECFFF" fill-opacity="0.1"/>
<path d="M49.1419 181.284L93.4365 136.991L93.4365 129.851L46.7192 176.568L0.000534541 129.851L0.000533916 136.991L44.2952 181.284L49.1419 181.284Z" fill="#6ECFFF" fill-opacity="0.1"/>
<path d="M93.436 72.7795L93.436 65.6409L46.7187 112.358L2.7733e-05 65.6409L2.71089e-05 72.7795L46.7187 119.497L93.436 72.7795Z" fill="#6ECFFF" fill-opacity="0.1"/>
<path d="M93.436 51.3766L93.436 44.2366L46.7187 90.9539L2.7733e-05 44.2366L2.71088e-05 51.3766L46.7187 98.0939L93.436 51.3766Z" fill="#6ECFFF" fill-opacity="0.1"/>
<path d="M93.436 115.586L93.436 108.448L46.7187 155.165L2.7733e-05 108.448L2.71089e-05 115.586L46.7187 162.304L93.436 115.586Z" fill="#6ECFFF" fill-opacity="0.1"/>
<path d="M93.436 94.1842L93.436 87.0442L46.7187 133.762L2.7733e-05 87.0442L2.71088e-05 94.1842L46.7187 140.902L93.436 94.1842Z" fill="#6ECFFF" fill-opacity="0.1"/>
</svg>
