<svg width="81" height="81" viewBox="0 0 81 81" fill="none" xmlns="http://www.w3.org/2000/svg">
<path d="M79.6121 60.7093L60.708 60.7093L60.708 79.612L79.6121 79.612L79.6121 60.7093ZM80.6121 80.612L59.708 80.612L59.708 59.7093L80.6121 59.7093L80.6121 80.612Z" fill="white" fill-opacity="0.03"/>
<path d="M59.7083 40.8057L40.8057 40.8057L40.8057 59.7097L59.7083 59.7097L59.7083 40.8057ZM60.7083 60.7097L39.8057 60.7097L39.8057 39.8057L60.7083 39.8057L60.7083 60.7097Z" fill="white" fill-opacity="0.03"/>
<path d="M59.7083 20.904L40.8057 20.904L40.8057 39.8067L59.7083 39.8067L59.7083 20.904ZM60.7083 40.8054L39.8057 40.8054L39.8057 19.9027L60.7083 19.9027L60.7083 40.8054Z" fill="white" fill-opacity="0.03"/>
<path d="M39.807 40.8057L20.9043 40.8057L20.9043 59.7097L39.807 59.7097L39.807 40.8057ZM40.807 60.7097L19.9043 60.7097L19.9043 39.8057L40.807 39.8057L40.807 60.7097Z" fill="white" fill-opacity="0.03"/>
<path d="M79.6121 40.8057L60.708 40.8057L60.708 59.7097L79.6121 59.7097L79.6121 40.8057ZM80.6121 60.7097L59.708 60.7097L59.708 39.8057L80.6121 39.8057L80.6121 60.7097Z" fill="white" fill-opacity="0.03"/>
<path d="M79.6121 20.904L60.708 20.904L60.708 39.8067L79.6121 39.8067L79.6121 20.904ZM80.6121 40.8054L59.708 40.8054L59.708 19.9027L80.6121 19.9027L80.6121 40.8054Z" fill="white" fill-opacity="0.03"/>
<path d="M79.6121 0.999988L60.708 0.999991L60.708 19.904L79.6121 19.904L79.6121 0.999988ZM80.6121 20.904L59.708 20.904L59.708 -8.92655e-06L80.6121 -1.25815e-05L80.6121 20.904Z" fill="white" fill-opacity="0.03"/>
<path d="M59.7083 60.7093L40.8057 60.7093L40.8057 79.612L59.7083 79.612L59.7083 60.7093ZM60.7083 80.612L39.8057 80.612L39.8057 59.7093L60.7083 59.7093L60.7083 80.612Z" fill="white" fill-opacity="0.03"/>
<path d="M39.807 60.7093L20.9043 60.7093L20.9043 79.612L39.807 79.612L39.807 60.7093ZM40.807 80.612L19.9043 80.612L19.9043 59.7093L40.807 59.7093L40.807 80.612Z" fill="white" fill-opacity="0.03"/>
<path d="M19.904 60.7093L0.999997 60.7093L1 79.612L19.9041 79.612L19.904 60.7093ZM20.9041 80.612L0 80.612L-3.65474e-06 59.7093L20.904 59.7093L20.9041 80.612Z" fill="white" fill-opacity="0.03"/>
</svg>
