<svg width="59" height="44" viewBox="0 0 59 44" fill="none" xmlns="http://www.w3.org/2000/svg">
<path d="M18.672 5.08742C19.726 7.60052 21.6956 8.21942 25.2134 7.09678C28.0401 6.2058 29.3873 6.79705 30.0977 9.23309C31.2484 13.1447 32.926 14.6412 35.5769 14.0975C38.6084 13.4729 39.0931 13.4514 39.9457 13.939C40.9232 14.498 41.2935 15.0979 41.4689 16.3623C41.9364 19.734 43.8389 20.9413 47.4729 20.0941C51.1069 19.2469 53.7217 21.6078 50.3395 22.6886C46.0421 24.0519 41.458 22.4455 39.1579 18.7423L38.1323 17.081L36.4028 17.0473C33.2042 17.0092 28.7061 13.9295 27.4635 10.9802L27.1509 10.2344L25.7072 10.4236C21.0764 11.0292 13.1091 5.57783 14.6814 2.8949C15.3365 1.77701 17.8582 3.15943 18.672 5.08742Z" fill="#0090D6"/>
<path d="M20.2943 15.1277C22.5475 14.7433 23.7833 14.6731 25.6262 18.3578C27.3605 21.8011 28.3023 22.2802 32.4611 21.8206C34.9016 21.5435 35.5544 21.9468 37.2934 24.7652C39.2967 28.0336 41.5441 29.3197 43.3905 28.2542C44.853 27.4173 48.006 29.1021 47.2719 30.3557C45.7774 32.9078 38.0034 30.4319 35.3142 26.5318L34.002 24.6451L32.6098 24.7452C28.9237 24.9671 24.9514 22.7837 22.8756 19.3542L22.1474 18.1308L20.0316 17.9958C14.9165 17.669 10.3229 14.9809 9.78868 11.9554C9.53086 10.4031 12.056 11.3098 13.4307 13.2322C14.6289 14.934 17.2039 15.6606 20.2943 15.1277Z" fill="#0090D6"/>
<path d="M34.0849 32.3344C36.7229 36.254 38.0373 36.945 41.1989 36.1892C45.4388 35.1557 47.7485 37.6963 43.6694 38.8812C39.3401 40.1616 34.36 37.8232 31.519 33.1621L30.8282 32.0228L29.0613 32.056C25.5065 32.1107 21.8122 30.4174 19.5941 27.7206L18.6924 26.6098L17.1802 26.729C13.0182 27.0623 8.24657 24.6047 6.75898 21.372C5.47293 18.5522 8.13951 18.735 9.91733 21.5676C10.8282 23.041 11.7391 23.7106 13.1304 23.9394C13.9184 24.0619 14.5457 24.0326 17.5241 23.5892C18.9456 23.3884 20.6515 24.4523 21.7539 26.2139C23.4202 28.9529 25.6941 29.805 29.3683 29.0739C31.0399 28.7777 32.234 29.5792 34.0849 32.3344Z" fill="#0090D6"/>
</svg>
