<svg width="51" height="43" viewBox="0 0 51 43" fill="none" xmlns="http://www.w3.org/2000/svg">
<path d="M27.4735 37.5443C27.7124 38.4783 29.841 37.8701 36.5526 34.9813C43.6552 31.9187 45.1105 30.9847 44.4589 30.029C43.5466 28.7257 27.1259 36.0239 27.4735 37.5443Z" fill="#0090D6"/>
<path d="M11.4655 7.37453C8.72869 8.28677 8.53316 8.87323 8.75038 15.4762C8.96758 22.2964 9.25003 23.5346 10.5315 23.5997C12.8556 23.7083 13.3769 21.8838 13.529 13.4345C13.6376 7.20076 13.4855 6.7012 11.4655 7.37453Z" fill="#0090D6"/>
<path d="M29.7324 11.7404C27.7558 12.3703 27.1694 13.0002 25.6272 16.1062C21.0877 25.3374 17.1127 31.5712 20.9355 30.2679C22.4994 29.7466 23.5203 28.1176 29.1893 17.4963C32.2954 11.61 32.3823 10.915 29.7324 11.7404Z" fill="#0090D6"/>
</svg>
