<svg width="60" height="51" viewBox="0 0 60 51" fill="none" xmlns="http://www.w3.org/2000/svg">
<path d="M32.5981 44.1276C32.8778 45.2211 35.37 44.5091 43.2279 41.1269C51.5436 37.5412 53.2475 36.4476 52.4846 35.3287C51.4165 33.8029 32.1912 42.3475 32.5981 44.1276Z" fill="#0090D6"/>
<path d="M13.8559 8.80504C10.6517 9.8731 10.4228 10.5597 10.6771 18.2905C10.9314 26.2756 11.2621 27.7252 12.7625 27.8014C15.4835 27.9286 16.0939 25.7924 16.2719 15.9001C16.399 8.6016 16.2209 8.0167 13.8559 8.80504Z" fill="#0090D6"/>
<path d="M35.2429 13.9165C32.9288 14.654 32.2422 15.3915 30.4366 19.028C25.1217 29.8359 20.4678 37.1343 24.9436 35.6085C26.7745 34.9982 27.9698 33.0909 34.6071 20.6555C38.2437 13.7639 38.3454 12.9501 35.2429 13.9165Z" fill="#0090D6"/>
</svg>
