<svg width="81" height="40" viewBox="0 0 81 40" fill="none" xmlns="http://www.w3.org/2000/svg">
<path d="M43.4735 34.5442C43.7124 35.4782 45.841 34.87 52.5526 31.9812C59.6552 28.9187 61.1105 27.9846 60.4589 27.0289C59.5466 25.7257 43.1259 33.0238 43.4735 34.5442Z" fill="#0090D6"/>
<path d="M27.4655 4.37459C24.7287 5.28684 24.5332 5.87329 24.7504 12.4763C24.9676 19.2965 25.25 20.5346 26.5315 20.5998C28.8556 20.7084 29.3769 18.8838 29.529 10.4346C29.6376 4.20083 29.4855 3.70126 27.4655 4.37459Z" fill="#0090D6"/>
<path d="M45.7324 8.74036C43.7558 9.37025 43.1694 10.0002 41.6272 13.1062C37.0877 22.3374 33.1127 28.5712 36.9355 27.2679C38.4994 26.7466 39.5203 25.1176 45.1893 14.4963C48.2954 8.61004 48.3823 7.91499 45.7324 8.74036Z" fill="#0090D6"/>
</svg>
