<svg width="87" height="39" viewBox="0 0 87 39" fill="none" xmlns="http://www.w3.org/2000/svg">
<path d="M46.4734 33.5442C46.7124 34.4782 48.841 33.87 55.5526 30.9812C62.6551 27.9187 64.1105 26.9846 63.4588 26.0289C62.5466 24.7257 46.1259 32.0238 46.4734 33.5442Z" fill="#0090D6"/>
<path d="M30.4655 3.37453C27.7287 4.28677 27.5332 4.87323 27.7504 11.4762C27.9676 18.2964 28.25 19.5346 29.5315 19.5997C31.8556 19.7083 32.3769 17.8838 32.529 9.43452C32.6376 3.20076 32.4855 2.7012 30.4655 3.37453Z" fill="#0090D6"/>
<path d="M48.7324 7.7403C46.7559 8.37019 46.1694 9.00011 44.6272 12.1062C40.0877 21.3373 36.1128 27.5711 39.9356 26.2679C41.4994 25.7466 42.5203 24.1175 48.1894 13.4962C51.2954 7.60998 51.3823 6.91493 48.7324 7.7403Z" fill="#0090D6"/>
</svg>
